<svg width="29" height="47" viewBox="0 0 29 47" fill="none" xmlns="http://www.w3.org/2000/svg">
<path d="M14.6315 45.3245C18.9547 45.3245 22.9236 42.7177 23.4803 39.5139L24.3789 31.5622C22.6915 32.409 22.1471 34.2838 18.59 32.8277C18.59 32.8277 15.073 30.9137 14.0923 30.6169C9.22649 29.1382 4.62065 33.1001 4.57703 33.161L5.85521 39.4216C6.41709 42.6594 10.3572 45.3245 14.6315 45.3245Z" fill="url(#paint0_linear_295_9)"/>
<path d="M26.5087 18.3335C26.13 13.1505 22.4926 8.78034 17.4549 7.4565L17.7306 4.90371L19.9266 3.78702L20.0139 3.74263L21.573 2.96017C21.8967 2.79741 22.1428 2.51367 22.257 2.16987C22.3705 1.82695 22.3434 1.45269 22.1803 1.12891L21.9883 0.751171C21.9665 0.709394 21.943 0.668486 21.9177 0.629319C21.5407 0.0400787 20.7782 -0.16881 20.1526 0.146264L19.6815 0.383875L19.6474 0.400412L15.2013 2.60245C14.943 2.71995 14.765 2.96539 14.7345 3.24739L14.3227 7.0483C7.90121 7.06832 2.6698 12.0416 2.21262 18.3335C0.92745 18.5816 0 19.7026 0 21.0064V22.2867C0.00174497 23.742 1.15168 24.937 2.60872 25.0006L4.40866 38.9047C4.77074 43.2566 8.21443 46.5405 12.4146 46.5405H16.5414C20.7424 46.5405 24.1844 43.2592 24.5421 38.9543L26.349 24.9805C27.7031 24.803 28.7169 23.6541 28.7195 22.2911V21.0117C28.7213 19.7052 27.793 18.5816 26.5078 18.3335H26.5087ZM14.3602 9.09019C19.637 9.09019 23.9706 13.1374 24.4496 18.2813H22.449C21.9796 14.2323 18.5446 11.0842 14.3628 11.0842C10.1819 11.0842 6.73819 14.2323 6.27141 18.2822H4.27081C4.74893 13.1383 9.08081 9.09106 14.3602 9.09106V9.09019ZM20.4972 18.2813H18.282C17.8562 16.4631 16.2317 15.1776 14.3602 15.1776C12.4887 15.1776 10.8642 16.4631 10.4384 18.2813H8.22403C8.68383 15.255 11.2917 13.019 14.3602 13.019C17.4287 13.019 20.0366 15.2559 20.4972 18.2813ZM5.68685 32.4361L4.7245 25.0136H12.3395L11.8466 29.6875C8.95255 29.5935 6.8996 31.128 5.68685 32.4361V32.4361ZM22.4542 38.7307C22.1838 41.9876 19.6405 44.4429 16.5405 44.4429H12.4154C9.31463 44.4429 6.77222 41.9876 6.49651 38.681L5.99483 34.8018C6.45376 34.0428 8.31564 31.3682 11.6668 31.4004L11.0474 37.2797C10.9662 38.0483 11.5081 38.742 12.2593 38.8247L12.6807 38.8717C12.7278 38.8769 12.774 38.8804 12.8211 38.8804C13.5313 38.8743 14.1211 38.332 14.1866 37.627L14.7642 32.1376C14.8732 32.1863 14.9805 32.2307 15.0913 32.2856C18.9538 34.1717 21.6367 33.6042 23.2246 32.7773L22.4551 38.7307H22.4542ZM23.5221 30.4795C23.0021 31.0192 20.5941 33.075 15.8417 30.7554C15.5381 30.6075 15.2432 30.4822 14.9517 30.3664L15.5154 25.0119H24.2289L23.5221 30.4795V30.4795ZM26.6448 22.285C26.6448 22.4591 26.5767 22.6262 26.4537 22.7489C26.3315 22.8725 26.164 22.9421 25.9904 22.943H2.73262C2.37054 22.943 2.07651 22.6497 2.07564 22.2885V21.0082C2.07651 20.647 2.37054 20.3537 2.73262 20.3537H25.9904C26.3525 20.3537 26.6456 20.647 26.6465 21.0082L26.6448 22.285Z" fill="#122F53"/>
<defs>
<linearGradient id="paint0_linear_295_9" x1="4.57703" y1="37.8063" x2="24.3783" y2="37.8063" gradientUnits="userSpaceOnUse">
<stop stop-color="#59C4C9"/>
<stop offset="0.37" stop-color="#41B1BE"/>
<stop offset="1" stop-color="#0F8BA8"/>
</linearGradient>
</defs>
</svg>
