<svg width="607" height="557" viewBox="0 0 607 557" fill="none" xmlns="http://www.w3.org/2000/svg">
<mask id="mask0_290_30" style="mask-type:alpha" maskUnits="userSpaceOnUse" x="402" y="357" width="171" height="200">
<path d="M572.688 388.489L442.619 357L402 524.783L532.069 556.272L572.688 388.489Z" fill="white"/>
</mask>
<g mask="url(#mask0_290_30)">
<path fill-rule="evenodd" clip-rule="evenodd" d="M430.453 527.746C410.953 504.853 413.604 472.466 421.792 444.866C423.159 440.258 423.923 435.226 427.192 431.721C430.46 428.219 436.334 426.771 439.978 429.811C443 432.333 443.457 436.738 444.522 440.56C445.935 445.646 448.805 450.297 452.693 453.804C455.247 456.108 458.657 458 461.994 457.147C466.569 455.976 468.482 450.561 469.657 445.928C471.846 437.297 474.034 428.668 476.22 420.038C477.395 415.41 478.609 410.685 481.187 406.671C483.762 402.656 487.994 399.406 492.704 399.317C497.415 399.227 502.182 403.175 501.931 407.942C501.828 409.925 500.935 411.78 500.565 413.732C500.193 415.685 500.534 418.039 502.214 419.047C503.915 420.07 506.101 419.24 507.834 418.244C513.81 414.817 518.606 409.645 523.182 404.451C527.759 399.256 532.283 393.898 537.93 389.93C543.574 385.965 550.601 383.486 557.307 384.831C564.012 386.176 569.991 392.095 569.968 399.028C569.948 405.983 564.433 411.607 558.93 415.808C550.767 422.041 541.717 427.077 532.158 430.706C530.434 431.362 528.566 432.069 527.563 433.636C525.76 436.459 527.879 440.277 530.653 442.08C533.795 444.125 537.618 444.736 541.105 446.099C544.593 447.459 548.077 450.064 548.551 453.824C549.211 459.041 543.979 462.968 539.255 465.202C529.793 469.676 519.584 472.497 509.212 473.507C505.495 473.869 501.638 474.031 498.279 475.709C494.92 477.386 492.188 481.111 492.995 484.796C493.801 488.488 497.775 490.634 501.501 490.896C505.227 491.162 508.915 490.057 512.635 489.658C519.6 488.909 527.675 491.479 530.307 498.027C532.038 502.33 530.966 507.418 528.496 511.367C526.028 515.319 522.326 518.312 518.528 520.974C505.256 530.275 489.744 536.506 473.705 537.787C457.668 539.069 443.678 536.906 430.453 527.745" fill="#F3AF47"/>
<path fill-rule="evenodd" clip-rule="evenodd" d="M417.727 569.508C418.792 563.169 419.97 559.745 423.887 548.91C427.776 538.074 433.591 525.594 441.368 512.537C449.121 499.462 458.793 485.834 469.393 471.929C472.055 468.464 474.685 465.038 477.278 461.663C479.874 458.3 482.449 454.965 485.166 451.857C490.572 445.62 496.239 440.037 501.783 434.907C507.324 429.771 512.769 425.1 517.889 420.771C523.024 416.452 527.882 412.516 532.46 409.12C541.603 402.289 549.601 397.668 555.221 394.721C558.029 393.239 560.243 392.161 561.755 391.451C562.481 391.116 563.047 390.852 563.477 390.654C563.867 390.479 564.069 390.396 564.077 390.41C564.084 390.425 563.893 390.535 563.514 390.735C563.096 390.954 562.537 391.243 561.83 391.611C560.343 392.375 558.156 393.5 555.376 395.028C549.812 398.066 541.891 402.755 532.824 409.626C528.28 413.046 523.455 417.002 518.35 421.34C513.253 425.691 507.834 430.374 502.321 435.511C496.806 440.647 491.172 446.221 485.804 452.432C483.106 455.527 480.56 458.836 477.958 462.209C475.369 465.583 472.742 469.008 470.081 472.472C459.492 486.365 449.823 499.944 442.053 512.958C434.263 525.953 428.416 538.354 424.467 549.123C420.489 559.893 419.227 563.258 418.064 569.565" fill="#263238"/>
<path fill-rule="evenodd" clip-rule="evenodd" d="M487.043 450.511C486.991 450.509 487.038 449.768 487.164 448.431C487.284 447.095 487.515 445.165 487.83 442.782C488.457 438.018 489.517 431.457 490.709 424.227C491.902 416.993 492.879 410.439 493.441 405.683C493.727 403.305 493.943 401.378 494.077 400.046C494.217 398.714 494.321 397.975 494.373 397.975C494.425 397.975 494.422 398.713 494.373 400.048C494.331 401.385 494.196 403.322 493.976 405.712C493.55 410.495 492.655 417.085 491.46 424.327C490.267 431.459 489.187 437.911 488.364 442.842C488.004 445.071 487.701 446.95 487.459 448.458C487.241 449.783 487.097 450.516 487.043 450.511" fill="#263238"/>
<path fill-rule="evenodd" clip-rule="evenodd" d="M548.53 454.631C548.516 454.69 547.657 454.571 546.12 454.306C544.582 454.051 542.359 453.669 539.596 453.286C534.078 452.479 526.418 451.633 517.92 451.077C509.422 450.535 501.706 450.378 496.123 450.428C493.328 450.432 491.068 450.497 489.504 450.533C487.941 450.575 487.075 450.57 487.07 450.507C487.068 450.446 487.929 450.336 489.492 450.187C491.053 450.045 493.319 449.885 496.119 449.798C501.718 449.587 509.463 449.646 517.989 450.188C526.51 450.747 534.19 451.695 539.698 452.666C542.455 453.13 544.668 453.606 546.19 453.968C547.71 454.338 548.543 454.57 548.53 454.631V454.631ZM528.433 503.99C528.433 504.022 528.133 504.068 527.562 504.128C526.891 504.186 526.065 504.256 525.065 504.345L515.881 505.043C508.126 505.636 497.42 506.585 485.593 507.648C473.759 508.714 463.038 509.557 455.275 509.981C451.392 510.193 448.251 510.333 446.079 510.383C445.075 510.399 444.249 510.411 443.577 510.424C443.007 510.423 442.705 510.406 442.706 510.373C442.706 510.34 443.004 510.295 443.576 510.234L446.072 510.019C448.374 509.842 451.477 509.608 455.256 509.32C463.011 508.727 473.717 507.779 485.549 506.714C497.377 505.649 508.098 504.805 515.864 504.381C519.745 504.167 522.886 504.029 525.061 503.98C526.063 503.964 526.888 503.949 527.561 503.938C528.132 503.94 528.431 503.957 528.433 503.99" fill="#263238"/>
</g>
<mask id="mask1_290_30" style="mask-type:alpha" maskUnits="userSpaceOnUse" x="0" y="229" width="196" height="228">
<path d="M0 271.038L139.254 229L195.392 414.963L56.1378 457L0 271.038Z" fill="white"/>
</mask>
<g mask="url(#mask1_290_30)">
<path fill-rule="evenodd" clip-rule="evenodd" d="M164.65 419.758C184.233 393.086 179.042 356.921 168.169 326.409C166.353 321.314 165.164 315.715 161.358 311.955C157.554 308.199 151.06 306.88 147.312 310.477C144.204 313.46 144.021 318.422 143.136 322.761C141.96 328.535 139.169 333.896 135.189 338.029C132.575 340.745 129 343.042 125.309 342.258C120.249 341.184 117.782 335.213 116.174 330.081C113.178 320.52 110.183 310.961 107.19 301.4C105.582 296.274 103.926 291.04 100.835 286.675C97.7474 282.308 92.9128 278.885 87.7821 279.029C82.6515 279.173 77.747 283.845 78.359 289.175C78.6128 291.392 79.7155 293.425 80.2574 295.595C80.8007 297.764 80.5978 300.421 78.8419 301.638C77.0641 302.872 74.6269 302.055 72.6708 301.029C65.9265 297.497 60.3399 291.948 54.9926 286.363C49.6434 280.778 44.3397 275.007 37.9147 270.852C31.4924 266.7 23.6711 264.286 16.4719 266.14C9.27297 267.996 3.19108 274.939 3.70959 282.71C4.22665 290.505 10.6269 296.523 16.913 300.946C26.2367 307.51 36.4403 312.686 47.0976 316.257C49.0197 316.904 51.1019 317.6 52.3048 319.304C54.4671 322.375 52.4344 326.765 49.5455 328.929C46.2731 331.384 42.1573 332.268 38.4606 333.975C34.7633 335.681 31.1589 338.782 30.9106 343.021C30.5642 348.903 36.5358 353.033 41.8343 355.292C52.4464 359.817 63.7525 362.45 75.108 363.044C79.1777 363.258 83.385 363.239 87.1583 364.945C90.9321 366.651 94.1694 370.685 93.5542 374.858C92.9403 379.037 88.7701 381.649 84.7346 382.136C80.701 382.627 76.61 381.579 72.5345 381.326C64.905 380.847 56.3028 384.146 53.9061 391.622C52.3297 396.535 53.8577 402.183 56.826 406.481C59.7928 410.783 64.0327 413.945 68.3543 416.733C83.4547 426.47 100.774 432.65 118.313 433.255C135.85 433.86 150.916 430.711 164.649 419.757" fill="#E74F5A"/>
<path fill-rule="evenodd" clip-rule="evenodd" d="M181.469 465.91C179.859 458.859 178.334 455.083 173.3 443.141C168.298 431.196 161.083 417.509 151.692 403.276C142.328 389.022 130.834 374.248 118.313 359.211C115.17 355.465 112.066 351.762 109.004 348.113C105.941 344.478 102.902 340.873 99.7251 337.531C93.3992 330.82 86.8369 324.855 80.4411 319.392C74.0466 313.923 67.7908 308.969 61.9124 304.382C56.0193 299.808 50.454 295.647 45.2317 292.078C34.799 284.895 25.769 280.129 19.4454 277.118C16.2857 275.602 13.7999 274.508 12.1043 273.791C11.2914 273.453 10.6561 273.187 10.1748 272.987C9.73793 272.811 9.51164 272.729 9.50452 272.745C9.49798 272.762 9.71307 272.875 10.1396 273.08C10.6102 273.304 11.239 273.599 12.0349 273.975C13.7063 274.754 16.1662 275.902 19.2991 277.47C25.5675 280.587 34.5184 285.432 44.8723 292.664C50.0588 296.261 55.5889 300.446 61.4523 305.044C67.3067 309.657 73.5354 314.626 79.8989 320.098C86.2633 325.568 92.7902 331.525 99.0715 338.208C102.227 341.538 105.233 345.114 108.303 348.76C111.36 352.408 114.462 356.111 117.604 359.856C130.113 374.879 141.598 389.599 150.977 403.784C160.377 417.946 167.622 431.543 172.684 443.409C177.779 455.275 179.391 458.982 181.106 465.991" fill="#263238"/>
<path fill-rule="evenodd" clip-rule="evenodd" d="M97.5874 336.12C97.6433 336.114 97.5393 335.286 97.3075 333.794C97.0814 332.303 96.6929 330.152 96.18 327.496C95.1593 322.189 93.5384 314.89 91.7269 306.847C89.9135 298.8 88.3844 291.505 87.4339 286.203C86.954 283.552 86.5817 281.404 86.3404 279.918C86.0939 278.431 85.9284 277.609 85.8715 277.611C85.8143 277.614 85.8704 278.441 86.0188 279.935C86.16 281.431 86.4446 283.596 86.8543 286.264C87.6579 291.602 89.1015 298.942 90.9169 306.998C92.7224 314.931 94.3568 322.107 95.6042 327.591C96.1547 330.071 96.6179 332.162 96.9882 333.839C97.3196 335.313 97.5289 336.127 97.5874 336.12" fill="#263238"/>
<path fill-rule="evenodd" clip-rule="evenodd" d="M30.9918 343.924C31.0102 343.989 31.9371 343.812 33.59 343.435C35.2448 343.07 37.6361 342.526 40.6144 341.954C46.5594 340.763 54.8321 339.418 64.0371 338.354C73.2437 337.305 81.6259 336.73 87.7037 336.496C90.7439 336.356 93.2073 336.312 94.9114 336.271C96.6142 336.237 97.556 336.186 97.5573 336.116C97.5551 336.048 96.6103 335.968 94.8997 335.882C93.1915 335.804 90.7152 335.742 87.6622 335.79C81.5565 335.844 73.1351 336.311 63.8992 337.361C54.669 338.429 46.3823 339.89 40.4597 341.264C37.4926 341.926 35.1192 342.575 33.4893 343.06C31.8622 343.553 30.9727 343.856 30.9918 343.924V343.924ZM56.369 398.208C56.372 398.245 56.7015 398.281 57.3264 398.318C58.0608 398.348 58.9643 398.385 60.0582 398.433L70.0998 398.739C78.5785 399.002 90.2922 399.51 103.234 400.088C116.183 400.669 127.907 401.059 136.382 401.132C140.621 401.169 144.048 401.163 146.414 401.106C147.507 401.071 148.407 401.043 149.139 401.023C149.759 400.991 150.086 400.957 150.083 400.92C150.081 400.883 149.753 400.848 149.127 400.81L146.395 400.697C143.879 400.619 140.487 400.517 136.356 400.39C127.876 400.128 116.162 399.62 103.215 399.039C90.2721 398.458 78.5496 398.068 70.0711 397.996C65.8331 397.956 62.4064 397.965 60.0375 398.022C58.9458 398.056 58.0474 398.083 57.3142 398.105C56.6929 398.137 56.3697 398.171 56.369 398.208" fill="#263238"/>
</g>
<mask id="mask2_290_30" style="mask-type:alpha" maskUnits="userSpaceOnUse" x="348" y="0" width="259" height="319">
<path d="M606.348 22.8601L377.489 -4.53035e-05L348 295.218L576.859 318.078L606.348 22.8601Z" fill="white"/>
</mask>
<g mask="url(#mask2_290_30)">
<path fill-rule="evenodd" clip-rule="evenodd" d="M396.802 293.413C358.195 259.051 355.053 203.292 362.468 154.373C363.706 146.206 363.818 137.46 368.553 130.721C373.289 123.987 382.947 120.133 389.868 124.447C395.609 128.025 397.428 135.417 400.143 141.672C403.751 149.994 409.736 157.233 417.184 162.284C422.076 165.604 428.328 168.018 433.807 165.777C441.319 162.703 443.295 153.033 444.2 144.868C445.886 129.659 447.571 114.452 449.253 99.2438C450.159 91.0875 451.108 82.7575 454.548 75.3155C457.984 67.8722 464.419 61.3404 472.416 60.0741C480.414 58.8087 489.461 64.4027 490.161 72.5757C490.454 75.9756 489.374 79.3449 489.205 82.756C489.034 86.1679 490.17 90.0953 493.268 91.4138C496.406 92.7523 499.931 90.8231 502.646 88.7185C512.007 81.4721 518.951 71.534 525.511 61.6099C532.075 51.6862 538.511 41.4954 547.185 33.4065C555.855 25.3222 567.232 19.4419 578.965 20.1456C590.698 20.8512 602.274 29.5126 603.874 41.3212C605.484 53.1648 597.425 64.0427 589.049 72.494C576.627 85.0345 562.412 95.7467 546.997 104.182C544.218 105.708 541.206 107.352 539.868 110.257C537.467 115.488 541.976 121.488 547.123 123.901C552.955 126.639 559.608 126.777 565.867 128.271C572.125 129.763 578.672 133.374 580.368 139.663C582.725 148.387 574.746 156.308 567.232 161.228C552.182 171.081 535.471 178.296 518.053 182.467C511.811 183.962 505.283 185.149 499.962 188.798C494.64 192.447 490.87 199.434 493.115 205.518C495.359 211.611 502.631 214.325 509.037 213.891C515.442 213.462 521.459 210.709 527.698 209.152C539.376 206.23 553.731 208.697 559.759 219.221C563.722 226.136 563.101 235.052 559.829 242.358C556.561 249.669 550.967 255.638 545.131 261.068C524.736 280.038 499.802 294.311 472.802 300.283C445.806 306.255 421.479 305.88 396.802 293.412" fill="#00CCCC"/>
<path fill-rule="evenodd" clip-rule="evenodd" d="M385.343 367.636C385.657 356.593 386.853 350.486 390.961 331.116C395.02 311.75 401.969 289.132 412.122 265.066C422.229 240.976 435.473 215.491 450.23 189.314C453.943 182.787 457.61 176.334 461.227 169.976C464.851 163.637 468.445 157.351 472.336 151.419C480.066 139.523 488.393 128.68 496.617 118.637C504.837 108.584 513.001 99.3458 520.694 90.7659C528.414 82.2008 535.753 74.3514 542.744 67.4883C556.694 53.6995 569.216 43.9418 578.087 37.5981C582.516 34.4105 586.03 32.0522 588.437 30.4866C589.592 29.7448 590.495 29.1616 591.179 28.7224C591.802 28.3324 592.127 28.1438 592.143 28.1655C592.159 28.1901 591.86 28.4216 591.262 28.8523C590.602 29.3241 589.719 29.9483 588.601 30.7422C586.252 32.3938 582.794 34.8262 578.422 38.0828C569.67 44.5701 557.295 54.4238 543.482 68.2645C536.556 75.1592 529.278 83.0338 521.612 91.6265C513.964 100.238 505.847 109.491 497.675 119.539C489.502 129.584 481.228 140.405 473.559 152.246C469.698 158.153 466.145 164.387 462.514 170.743C458.904 177.1 455.241 183.552 451.53 190.077C436.787 216.229 423.537 241.63 413.387 265.621C403.198 289.583 396.175 312.076 391.998 331.341C387.772 350.614 386.42 356.642 385.93 367.653" fill="#263238"/>
<path fill-rule="evenodd" clip-rule="evenodd" d="M475.213 148.684C475.125 148.693 475.03 147.42 474.928 145.114C474.817 142.812 474.754 139.472 474.727 135.34C474.668 127.083 474.922 115.663 475.242 103.073C475.563 90.477 475.677 79.0898 475.51 70.8605C475.434 66.7445 475.346 63.4144 475.26 61.1144C475.183 58.8133 475.185 57.5322 475.274 57.519C475.363 57.5068 475.532 58.7638 475.764 61.0482C476.008 63.3338 476.237 66.663 476.427 70.7843C476.833 79.0254 476.866 90.4553 476.544 103.066C476.2 115.489 475.886 126.728 475.649 135.317C475.563 139.196 475.492 142.466 475.437 145.09C475.379 147.397 475.306 148.679 475.213 148.684" fill="#263238"/>
<path fill-rule="evenodd" clip-rule="evenodd" d="M580.856 141.163C580.848 141.267 579.356 141.269 576.677 141.181C573.999 141.11 570.124 140.986 565.331 140.986C555.747 140.916 542.508 141.287 527.91 142.349C513.315 143.434 500.144 144.992 490.65 146.395C485.894 147.063 482.062 147.708 479.408 148.139C476.758 148.58 475.283 148.776 475.259 148.671C475.241 148.567 476.681 148.176 479.306 147.552C481.93 146.942 485.749 146.134 490.496 145.324C499.977 143.642 513.175 141.911 527.817 140.819C542.455 139.756 555.751 139.555 565.357 139.906C570.161 140.044 574.041 140.332 576.718 140.589C579.392 140.858 580.865 141.056 580.856 141.163V141.163ZM558.313 229.937C558.319 229.992 557.82 230.142 556.863 230.378C555.734 230.635 554.344 230.951 552.664 231.339L537.193 234.697C524.132 237.54 506.132 241.685 486.251 246.29C466.358 250.901 448.306 254.871 435.191 257.428C428.631 258.707 423.317 259.688 419.633 260.286C417.927 260.549 416.524 260.766 415.383 260.947C414.412 261.08 413.894 261.122 413.888 261.065C413.879 261.01 414.377 260.863 415.336 260.624L419.535 259.667C423.411 258.823 428.638 257.691 435.002 256.307C448.064 253.465 466.065 249.32 485.955 244.71C505.838 240.102 523.888 236.131 537.008 233.575C543.565 232.292 548.879 231.315 552.569 230.717C554.272 230.453 555.672 230.233 556.816 230.055C557.789 229.923 558.3 229.882 558.313 229.937" fill="#263238"/>
</g>
</svg>
