<svg width="126" height="30" viewBox="0 0 126 30" fill="none" xmlns="http://www.w3.org/2000/svg">
<path d="M63.7 16.4C61.2 16.4 59.1 18.5 59.1 21C59.1 23.5 61.2 25.6 63.7 25.6C66.2 25.6 68.3 23.6 68.3 21C68.3 19.8 67.8 18.6 67 17.7C66.1 16.8 64.9 16.4 63.7 16.4ZM63.7 23.7C62.6 23.8 61.5 23.2 61 22.1C60.5 21.1 60.7 19.8 61.5 19C62.3 18.2 63.5 17.9 64.6 18.3C65.7 18.7 66.4 19.7 66.4 20.9C66.4 21.6 66.2 22.3 65.7 22.8C65.1 23.4 64.4 23.7 63.7 23.7ZM53.6 16.4C51.1 16.4 49 18.5 49 21C49 23.5 51.1 25.6 53.6 25.6C56.1 25.6 58.2 23.6 58.2 21C58.2 19.8 57.7 18.6 56.9 17.7C56 16.8 54.8 16.4 53.6 16.4ZM53.6 23.7C52.5 23.8 51.4 23.2 50.9 22.1C50.4 21.1 50.6 19.8 51.4 19C52.2 18.2 53.4 17.9 54.5 18.3C55.6 18.7 56.3 19.7 56.3 20.9C56.3 21.6 56.1 22.3 55.6 22.8C55 23.4 54.3 23.7 53.6 23.7ZM41.6 17.8V19.7H46.3C46.2 20.6 45.8 21.5 45.2 22.1C44.3 23.1 42.9 23.6 41.6 23.5C38.7 23.5 36.4 21.2 36.4 18.3C36.4 15.4 38.7 13.1 41.6 13.1C42.9 13.1 44.2 13.6 45.1 14.5L46.5 13.1C45.2 11.8 43.4 11.1 41.6 11.1C39 11 36.5 12.3 35.2 14.6C33.9 16.8 33.9 19.6 35.2 21.9C36.5 24.1 39 25.5 41.6 25.4C43.5 25.5 45.3 24.8 46.6 23.4C47.7 22.2 48.3 20.5 48.3 18.9C48.3 18.5 48.3 18.1 48.2 17.7L41.6 17.8ZM90.6 19.3C90 17.6 88.5 16.4 86.7 16.4C85.5 16.4 84.4 16.9 83.5 17.8C82.7 18.7 82.3 19.8 82.3 21C82.3 22.2 82.7 23.4 83.6 24.2C84.5 25.1 85.6 25.5 86.9 25.5C88.4 25.5 89.9 24.8 90.7 23.5L89.1 22.4C88.6 23.2 87.8 23.7 86.8 23.7C85.8 23.7 85 23.2 84.6 22.3L90.8 19.8L90.6 19.3ZM84.4 20.8C84.4 20.1 84.6 19.5 85 19C85.5 18.5 86.1 18.2 86.8 18.2C87.5 18.2 88.2 18.5 88.5 19.2L84.4 20.8ZM79.4 25.2H81.4V11.8H79.4V25.2ZM76.1 17.4C75.4 16.7 74.5 16.3 73.6 16.3C71.1 16.4 69.2 18.4 69.2 20.9C69.2 23.4 71.1 25.4 73.6 25.5C74.5 25.5 75.4 25.1 76 24.4H76.1V25.1C76.1 26.9 75.2 27.8 73.6 27.8C72.6 27.8 71.7 27.1 71.3 26.2L69.5 26.9C70.2 28.5 71.8 29.6 73.6 29.6C76 29.6 77.9 28.2 77.9 24.8V16.7H76L76.1 17.4ZM73.7 23.7C72.3 23.6 71.1 22.4 71.1 20.9C71.1 19.5 72.2 18.2 73.7 18.1C74.4 18.1 75.1 18.4 75.5 19C76 19.5 76.2 20.2 76.1 20.9C76.2 21.6 75.9 22.3 75.5 22.8C75.1 23.4 74.4 23.7 73.7 23.7ZM100.1 11.8H95.3V25.2H97.3V20.1H100.1C101.7 20.2 103.2 19.4 104 18.1C104.8 16.8 104.8 15.1 104 13.7C103.2 12.5 101.7 11.7 100.1 11.8ZM100.1 18.3H97.3V13.7H100.2C101.5 13.7 102.5 14.7 102.5 16C102.5 17.3 101.4 18.3 100.1 18.3ZM112.6 16.3C111.1 16.2 109.7 17 109 18.4L110.8 19.1C111.2 18.4 111.9 18 112.6 18.1C113.1 18 113.6 18.2 114 18.5C114.4 18.8 114.7 19.3 114.7 19.8V20C114 19.7 113.3 19.5 112.6 19.5C110.7 19.5 108.7 20.6 108.7 22.5C108.7 23.3 109.1 24.1 109.7 24.7C110.3 25.3 111.2 25.5 112 25.5C113 25.6 114 25.1 114.6 24.2H114.7V25.3H116.6V20.1C116.7 17.7 114.9 16.4 112.6 16.3ZM112.3 23.7C111.6 23.7 110.7 23.4 110.7 22.6C110.7 21.5 111.8 21.2 112.9 21.2C113.5 21.2 114.2 21.3 114.7 21.7C114.6 22.8 113.6 23.7 112.3 23.7ZM123.8 16.6L121.5 22.4H121.4L119 16.6H116.8L120.4 24.7L118.3 29.2H120.4L125.9 16.5H123.8V16.6ZM105.6 25.2H107.6V11.8H105.6V25.2Z" fill="white"/>
<path d="M41.3 4C41.3 4.8 41 5.6 40.5 6.1C39.9 6.7 39 7.1 38.1 7.1C36.7 7.1 35.5 6.3 35 5C34.5 3.7 34.8 2.3 35.7 1.3C36.3 0.700002 37.2 0.300003 38.1 0.300003C38.6 0.300003 39 0.400003 39.4 0.600003C39.8 0.800003 40.1 1 40.4 1.3L39.8 1.9C39.4 1.4 38.7 1.1 38 1.1C37.3 1.1 36.7 1.4 36.2 1.9C35.7 2.4 35.5 3 35.5 3.7C35.5 4.7 36.1 5.7 37 6.1C37.9 6.5 39 6.3 39.8 5.6C40.1 5.2 40.3 4.8 40.3 4.3H38V3.5H41.1C41.3 3.7 41.3 3.8 41.3 4ZM46.2 1.3H43.3V3.3H46V4.1H43.3V6.1H46.2V7H42.4V0.600003H46.2V1.3ZM49.8 7H49V1.3H47.2V0.500003H51.7V1.3H49.8V7ZM54.8 7V0.600003H55.6V7H54.8ZM59.4 7H58.6V1.3H56.8V0.500003H61.3V1.3H59.5V7H59.4ZM69.6 6.1C68.3 7.4 66.2 7.4 64.8 6.1C63.5 4.8 63.5 2.7 64.8 1.3C66.1 2.14577e-06 68.2 2.14577e-06 69.6 1.3C70.9 2.7 70.9 4.8 69.6 6.1ZM65.5 5.6C66.5 6.6 68.1 6.6 69 5.6C70 4.6 70 2.9 69 1.9C68 0.900002 66.5 0.900002 65.5 1.9C64.5 2.9 64.5 4.6 65.5 5.6ZM71.7 7V0.600003H72.7L75.9 5.6V0.600003H76.7V7H75.8L72.5 1.7V7H71.7Z" fill="white" stroke="white" stroke-width="0.5"/>
<path d="M1.29999 1.10001C0.899988 1.50001 0.799988 2.10001 0.799988 2.60001V26.4C0.799988 26.9 0.899988 27.5 1.29999 27.9L1.39999 28L14.8 14.7V14.4L1.29999 1.10001Z" fill="url(#paint0_linear_222_342)"/>
<path d="M19.2 19.1L14.8 14.7V14.4L19.2 9.90001L19.3 10L24.6 13C26.1 13.9 26.1 15.2 24.6 16.1L19.3 19.1H19.2Z" fill="url(#paint1_linear_222_342)"/>
<path d="M19.3 19L14.7 14.5L1.29999 27.9C1.89999 28.5 2.89999 28.5 3.49999 28L19.3 19Z" fill="url(#paint2_linear_222_342)"/>
<path d="M19.3 10L3.49999 0.999996C2.79999 0.499996 1.89999 0.499996 1.29999 1.1L14.8 14.5L19.3 10Z" fill="url(#paint3_linear_222_342)"/>
<path opacity="0.2" d="M19.2 18.9L3.49998 27.8C2.89998 28.3 1.99998 28.3 1.29998 27.8L1.19998 27.9L1.29998 28C1.89998 28.5 2.79998 28.5 3.49998 28L19.3 19L19.2 18.9Z" fill="black"/>
<path opacity="0.12" d="M1.29999 27.7C0.899988 27.3 0.799988 26.7 0.799988 26.2V26.4C0.799988 26.9 0.899988 27.5 1.29999 27.9V27.7ZM24.6 15.9L19.2 18.9L19.3 19L24.6 16C25.2 15.7 25.6 15.1 25.7 14.5C25.6 15.1 25.2 15.6 24.6 15.9Z" fill="black"/>
<path opacity="0.25" d="M3.49999 1.2L24.6 13.1C25.2 13.4 25.6 13.9 25.7 14.5C25.6 13.8 25.2 13.2 24.6 13L3.49999 1C1.99999 0.100001 0.799988 0.900001 0.799988 2.6V2.8C0.799988 1.1 1.99999 0.300001 3.49999 1.2Z" fill="white"/>
<defs>
<linearGradient id="paint0_linear_222_342" x1="9.40126" y1="2.42797" x2="-2.07528" y2="13.8355" gradientUnits="userSpaceOnUse">
<stop stop-color="#00A0FF"/>
<stop offset="0.01" stop-color="#00A1FF"/>
<stop offset="0.26" stop-color="#00BEFF"/>
<stop offset="0.51" stop-color="#00D2FF"/>
<stop offset="0.76" stop-color="#00DFFF"/>
<stop offset="1" stop-color="#00E3FF"/>
</linearGradient>
<linearGradient id="paint1_linear_222_342" x1="26.5864" y1="14.5" x2="0.426117" y2="14.5" gradientUnits="userSpaceOnUse">
<stop stop-color="#FFE000"/>
<stop offset="0.41" stop-color="#FFBD00"/>
<stop offset="0.78" stop-color="#FFA500"/>
<stop offset="1" stop-color="#FF9C00"/>
</linearGradient>
<linearGradient id="paint2_linear_222_342" x1="15.6441" y1="17.5835" x2="-3.92217" y2="37.0238" gradientUnits="userSpaceOnUse">
<stop stop-color="#FF3A44"/>
<stop offset="1" stop-color="#C31162"/>
</linearGradient>
<linearGradient id="paint3_linear_222_342" x1="-3.31221" y1="0.342243" x2="5.41995" y2="9.02361" gradientUnits="userSpaceOnUse">
<stop stop-color="#32A071"/>
<stop offset="0.07" stop-color="#2DA771"/>
<stop offset="0.48" stop-color="#15CF74"/>
<stop offset="0.8" stop-color="#06E775"/>
<stop offset="1" stop-color="#00F076"/>
</linearGradient>
</defs>
</svg>
