<svg width="231" height="297" viewBox="0 0 231 297" fill="none" xmlns="http://www.w3.org/2000/svg">
<mask id="mask0_234_26" style="mask-type:alpha" maskUnits="userSpaceOnUse" x="0" y="0" width="231" height="297">
<path d="M230.19 0.217346L0.192444 0.217366L0.19247 296.904L230.19 296.904L230.19 0.217346Z" fill="white"/>
</mask>
<g mask="url(#mask0_234_26)">
<path fill-rule="evenodd" clip-rule="evenodd" d="M48.5735 290.256C6.74245 259.901 -1.92556 204.731 0.590437 155.317C1.01044 147.067 0.252431 138.354 4.29443 131.177C8.33743 124.006 17.5644 119.211 24.8804 122.816C30.9484 125.806 33.4934 132.98 36.8164 138.934C41.2334 146.857 47.9084 153.465 55.8214 157.751C61.0194 160.568 67.4804 162.348 72.7094 159.574C79.8784 155.769 80.8834 145.95 80.9724 137.736C81.1384 122.434 81.3044 107.135 81.4664 91.8353C81.5574 83.6293 81.6734 75.2463 84.3564 67.4993C87.0354 59.7513 92.7894 52.6123 100.621 50.5573C108.453 48.5033 118.012 53.1703 119.521 61.2333C120.15 64.5873 119.41 68.0473 119.581 71.4583C119.75 74.8703 121.271 78.6653 124.485 79.6693C127.74 80.6893 131.056 78.4193 133.548 76.0553C142.143 67.9143 148.064 57.3353 153.606 46.8083C159.151 36.2813 164.542 25.5013 172.369 16.5903C180.193 7.68434 190.929 0.702338 202.674 0.236337C214.419 -0.227664 226.798 7.24033 229.564 18.8313C232.343 30.4563 225.405 42.0813 217.911 51.3233C206.797 65.0363 193.717 77.1083 179.217 87.0343C176.603 88.8283 173.769 90.7643 172.727 93.7873C170.857 99.2313 175.94 104.753 181.302 106.643C187.377 108.787 194.011 108.263 200.387 109.128C206.763 109.99 213.636 112.933 215.949 119.022C219.161 127.469 212.009 136.144 205.021 141.786C191.025 153.086 175.114 161.926 158.197 167.808C152.134 169.916 145.757 171.746 140.825 175.906C135.892 180.066 132.835 187.393 135.673 193.223C138.512 199.063 146.018 201.041 152.349 199.972C158.679 198.909 164.393 195.572 170.446 193.402C181.776 189.334 196.305 190.362 203.349 200.235C207.98 206.722 208.248 215.655 205.719 223.25C203.194 230.85 198.221 237.345 192.953 243.328C174.545 264.231 151.153 280.912 124.88 289.538C98.6114 298.164 74.3675 300.209 48.5735 290.255" fill="#00CCCC"/>
<path fill-rule="evenodd" clip-rule="evenodd" d="M44.5484 365.252C43.7634 354.232 44.3464 348.037 46.5084 328.354C48.6224 308.681 53.2894 285.484 61.0004 260.528C68.6624 235.553 79.3084 208.878 91.3904 181.364C94.4364 174.5 97.4434 167.714 100.41 161.028C103.386 154.361 106.338 147.748 109.62 141.459C116.129 128.854 123.337 117.237 130.522 106.426C137.702 95.6064 144.908 85.6024 151.71 76.3004C158.54 67.0104 165.063 58.4704 171.337 50.9464C183.847 35.8394 195.338 24.8854 203.534 17.6914C207.624 14.0794 210.887 11.3834 213.126 9.58636C214.202 8.73336 215.042 8.06336 215.679 7.55836C216.26 7.10836 216.565 6.88836 216.583 6.90836C216.601 6.93136 216.327 7.19136 215.775 7.67936C215.165 8.21436 214.348 8.92336 213.315 9.82436C211.141 11.7014 207.942 14.4654 203.916 18.1404C195.852 25.4654 184.517 36.5004 172.149 51.6454C165.942 59.1944 159.483 67.7534 152.709 77.0654C145.955 86.3944 138.797 96.4084 131.665 107.218C124.531 118.026 117.373 129.616 110.919 142.161C107.664 148.422 104.748 154.978 101.767 161.664C98.8074 168.348 95.8034 175.132 92.7594 181.994C80.6894 209.482 70.0294 236.074 62.3144 260.955C54.5574 285.811 49.8044 308.89 47.5634 328.475C45.2734 348.073 44.5274 354.205 45.1344 365.211" fill="#263238"/>
<path fill-rule="evenodd" clip-rule="evenodd" d="M112.211 138.452C112.124 138.469 111.903 137.212 111.572 134.928C111.233 132.648 110.838 129.331 110.401 125.222C109.521 117.012 108.639 105.623 107.706 93.0644C106.774 80.4984 105.755 69.1564 104.771 60.9844C104.286 56.8964 103.868 53.5914 103.554 51.3114C103.248 49.0294 103.123 47.7544 103.21 47.7324C103.298 47.7114 103.591 48.9454 104.049 51.1954C104.519 53.4454 105.077 56.7354 105.676 60.8174C106.899 68.9774 108.068 80.3473 109.001 92.9273C109.893 105.323 110.698 116.537 111.316 125.107C111.616 128.976 111.87 132.237 112.076 134.853C112.248 137.155 112.303 138.437 112.211 138.452" fill="#263238"/>
<path fill-rule="evenodd" clip-rule="evenodd" d="M216.583 120.468C216.585 120.572 215.101 120.722 212.427 120.901C209.755 121.097 205.887 121.358 201.117 121.835C191.574 122.718 178.437 124.403 164.017 126.91C149.602 129.441 136.651 132.3 127.344 134.64C122.678 135.777 118.929 136.8 116.331 137.493C113.738 138.195 112.289 138.536 112.255 138.434C112.227 138.333 113.621 137.8 116.171 136.919C118.721 136.051 122.441 134.867 127.084 133.589C136.351 130.973 149.312 127.939 163.772 125.397C178.232 122.885 191.443 121.363 201.036 120.758C205.83 120.417 209.719 120.318 212.408 120.308C215.096 120.31 216.581 120.361 216.583 120.468V120.468ZM202.976 211.043C202.988 211.097 202.506 211.296 201.577 211.626C200.479 211.994 199.128 212.446 197.494 212.999L182.434 217.879C169.72 222.006 152.221 227.919 132.896 234.477C113.56 241.043 95.9915 246.787 83.1955 250.635C76.7955 252.56 71.6055 254.064 67.9985 255.025C66.3275 255.457 64.9525 255.812 63.8355 256.106C62.8825 256.334 62.3715 256.428 62.3595 256.372C62.3455 256.318 62.8265 256.122 63.7565 255.789L67.8395 254.419C71.6125 253.194 76.7015 251.548 82.8965 249.539C95.6115 245.412 113.111 239.499 132.444 232.935C151.77 226.373 169.337 220.628 182.138 216.78C188.535 214.852 193.726 213.352 197.338 212.39C199.006 211.958 200.378 211.6 201.498 211.309C202.453 211.081 202.958 210.989 202.976 211.043" fill="#263238"/>
</g>
</svg>
