<svg width="130" height="49" viewBox="0 0 130 49" fill="none" xmlns="http://www.w3.org/2000/svg">
<path d="M42.6833 21.0264V25.3069H48.9807V42.3992H53.3855V25.3069H59.683V21.0264H42.6833ZM78.8179 22.2678C77.5374 21.3782 75.6242 20.9067 73.2625 20.9067C72.1976 20.9067 66.9543 21.021 66.7333 21.0264L65.9013 21.0428V42.3992H70.3343V34.6528H73.1661C74.8496 34.6909 76.5169 34.3174 78.0249 33.565C80.094 32.2692 81.3301 29.9749 81.2814 27.526C81.2814 25.1359 80.4537 23.3665 78.8179 22.2667V22.2678ZM70.3235 25.3058C71.1901 25.3058 72.4977 25.2437 73.0361 25.2437C76.116 25.2437 76.7455 26.1943 76.7455 27.6175C76.7552 28.4494 76.3771 29.2399 75.726 29.7517C74.8171 30.1927 73.8107 30.3887 72.8032 30.3212H70.3343L70.3235 25.3069V25.3058ZM90.6923 25.7566C88.5126 25.7392 86.424 26.6386 84.9333 28.2382C83.3863 29.8312 82.538 31.9818 82.5781 34.2085C82.5478 36.4462 83.396 38.6055 84.9398 40.2192C86.4315 41.8122 88.5148 42.7095 90.6923 42.6953C92.209 42.7138 93.6953 42.2783 94.9628 41.4431V42.1313H99.3395V26.1203L95.03 27.0251C93.743 26.1758 92.2317 25.7337 90.6923 25.7566ZM93.6487 31.0889C94.4374 31.9317 94.8664 33.0521 94.8436 34.2085C94.8685 35.3736 94.4406 36.5039 93.6487 37.3554C92.9337 38.1416 91.9219 38.5891 90.8624 38.5891C89.8029 38.5891 88.7921 38.1427 88.076 37.3565C87.2852 36.5017 86.8573 35.3704 86.8876 34.2031C86.8616 33.0467 87.2885 31.9273 88.076 31.0834C88.7824 30.2831 89.7953 29.8258 90.8602 29.8258C91.924 29.8258 92.937 30.2831 93.6433 31.0834L93.6487 31.0889ZM110.354 32.4957L108.655 31.8402C107.126 31.2718 107.126 31.0998 107.126 30.8678C107.126 30.503 107.126 29.8312 109.074 29.8312C110.473 29.8345 111.851 30.172 113.095 30.8166L114.307 31.385V26.7921L113.74 26.582C112.221 26.0048 110.613 25.7054 108.989 25.7C105.07 25.7 102.726 27.5663 102.726 30.6914C102.726 33.8165 104.99 34.937 106.734 35.574L108.559 36.2295C110.324 36.8611 110.496 37.0375 110.496 37.3674C110.496 37.8345 110.496 38.6142 108.281 38.6142C106.622 38.6098 104.997 38.1351 103.593 37.2476L102.312 36.5072V41.2264L102.771 41.466C104.476 42.3099 106.353 42.7389 108.253 42.7182C112.415 42.7182 114.9 40.7593 114.9 37.4872C114.93 34.4873 112.856 33.4289 110.354 32.4957ZM125.094 32.4957L123.395 31.8402C121.866 31.2718 121.866 31.0998 121.866 30.8678C121.866 30.503 121.866 29.8312 123.814 29.8312C125.213 29.8345 126.591 30.172 127.834 30.8166L129.047 31.385V26.7921L128.48 26.582C126.962 26.0048 125.352 25.7054 123.73 25.7C119.81 25.7 117.466 27.5663 117.466 30.6914C117.466 33.8165 119.731 34.937 121.475 35.574L123.298 36.2295C125.065 36.8611 125.235 37.0375 125.235 37.3674C125.235 37.8345 125.235 38.6142 123.021 38.6142C121.363 38.6098 119.738 38.1351 118.332 37.2476L117.053 36.5072V41.2264L117.511 41.466C119.215 42.3099 121.094 42.7389 122.993 42.7182C127.155 42.7182 129.641 40.7593 129.641 37.4872C129.67 34.4873 127.625 33.4289 125.094 32.4957Z" fill="white"/>
<path d="M59.3937 42.4438C60.6663 42.4438 61.698 41.4069 61.698 40.1277C61.698 38.8486 60.6663 37.8117 59.3937 37.8117C58.1211 37.8117 57.0895 38.8486 57.0895 40.1277C57.0895 41.4069 58.1211 42.4438 59.3937 42.4438Z" fill="url(#paint0_linear_222_321)"/>
<path d="M15.2609 47.6313C19.7697 47.6313 23.9091 44.8916 24.4909 41.5248L25.4269 33.1686C23.6676 34.0594 23.0999 36.0292 19.3895 34.4982C19.3895 34.4982 15.7213 32.487 14.6986 32.1745C9.62322 30.6217 4.81863 34.7856 4.77313 34.8488L6.10672 41.4279C6.6928 44.8296 10.803 47.6313 15.2609 47.6313Z" fill="url(#paint1_linear_222_321)"/>
<path d="M27.6487 19.2668C27.2533 13.8202 23.4595 9.22725 18.2053 7.83565L18.4935 5.15372L20.7826 3.97989L20.8746 3.93307L22.4996 3.11096C22.8387 2.94001 23.0955 2.64165 23.2146 2.28014C23.3327 1.91972 23.3035 1.52663 23.1334 1.18689L22.9341 0.78945C22.9124 0.745895 22.8875 0.702339 22.8615 0.660962C22.4682 0.0424727 21.672 -0.177483 21.0198 0.153539L20.528 0.403984L20.4933 0.420317L15.8566 2.73421C15.5858 2.85834 15.4016 3.11532 15.3691 3.41258L14.9401 7.40663C8.24189 7.42841 2.78514 12.6551 2.30848 19.2668C0.969477 19.5281 0.0020599 20.7041 0.000976562 22.0761V23.4209C0.00314323 24.9497 1.20131 26.2063 2.72014 26.2727L4.59973 40.8856C4.97673 45.4589 8.56798 48.9096 12.9501 48.9096H17.2531C21.6351 48.9096 25.2253 45.4611 25.598 40.9368L27.4841 26.252C28.8967 26.0658 29.9541 24.8583 29.9562 23.4264V22.0805C29.9573 20.7085 28.9899 19.5271 27.6487 19.2668ZM14.977 9.55392C20.4803 9.55392 25.0011 13.806 25.5016 19.2124H23.414C22.9254 14.957 19.3417 11.6489 14.9802 11.6489C10.6198 11.6489 7.02856 14.957 6.54106 19.2124H4.45456C4.95289 13.806 9.47148 9.55392 14.977 9.55392ZM21.3784 19.2124H19.0687C18.6246 17.3014 16.9291 15.9501 14.9781 15.9501C13.0259 15.9501 11.3316 17.3014 10.8874 19.2124H8.57773C9.05764 16.0317 11.7779 13.6808 14.9781 13.6808C18.1782 13.6808 20.8985 16.0317 21.3784 19.2124ZM5.93114 34.0866L4.92906 26.2858H12.8699L12.3575 31.1967C9.33823 31.0987 7.19756 32.7102 5.93331 34.0855L5.93114 34.0866ZM23.4194 40.7016C23.1377 44.124 20.4857 46.7046 17.252 46.7046H12.949C9.71414 46.7046 7.06214 44.124 6.77398 40.6504L6.25181 36.5725C6.72956 35.7755 8.67198 32.965 12.1668 32.9988L11.5211 39.1771C11.4366 39.9851 12.0021 40.7136 12.7854 40.8007L13.2252 40.8497C13.274 40.8551 13.3227 40.8584 13.3715 40.8584C14.1125 40.8518 14.7278 40.2835 14.7961 39.5419L15.3984 33.773C15.5121 33.8242 15.6237 33.871 15.7386 33.9287C19.7686 35.9105 22.5657 35.3138 24.2221 34.4448L23.4205 40.7016H23.4194ZM24.5331 32.0308C23.9914 32.597 21.4791 34.7584 16.5229 32.3204C16.2066 32.1647 15.8989 32.0329 15.5934 31.9121L16.1827 26.2847H25.2719L24.5331 32.0308ZM27.7906 23.4187C27.7906 23.6017 27.7191 23.7781 27.5913 23.9066C27.4635 24.0372 27.2891 24.1102 27.1071 24.1102H2.85014C2.47098 24.1102 2.16548 23.802 2.16548 23.4231V22.0772C2.16548 21.6972 2.47206 21.3901 2.85014 21.3891H27.1071C27.4862 21.3891 27.7917 21.6972 27.7928 22.0772L27.7906 23.4187Z" fill="white"/>
<path d="M17.4839 43.0166C16.8253 43.1603 16.406 43.8125 16.549 44.4757C16.6909 45.1377 17.3398 45.558 17.9996 45.4154C18.6583 45.2738 19.0775 44.6205 18.9356 43.9584C18.8673 43.6405 18.6756 43.3617 18.4048 43.1853C18.1318 43.0078 17.8003 42.948 17.4839 43.0166ZM18.3625 40.2824C18.135 40.3324 17.9617 40.5132 17.9194 40.743C17.8783 40.9716 17.979 41.2036 18.174 41.3299C18.369 41.4562 18.6203 41.4518 18.8099 41.319C19.0006 41.1861 19.0927 40.9509 19.0439 40.7234C18.9768 40.4119 18.6713 40.2148 18.3614 40.2824H18.3625ZM10.4412 43.7962C10.2115 43.8463 10.0653 44.075 10.1151 44.308C10.1649 44.5388 10.3924 44.6858 10.6232 44.6346C10.8528 44.5846 10.9991 44.3559 10.9493 44.125C10.9254 44.014 10.8583 43.916 10.7629 43.855C10.6676 43.7929 10.5517 43.7722 10.4412 43.7962ZM15.1764 41.0511C14.8558 41.1197 14.6098 41.3778 14.5513 41.7012C14.4928 42.0246 14.6348 42.3523 14.9099 42.5309C15.1862 42.7084 15.5404 42.7019 15.8091 42.5146C16.0799 42.3262 16.2099 41.9941 16.1395 41.6729C16.0442 41.233 15.613 40.9542 15.1753 41.05L15.1764 41.0511ZM10.3621 41.0511C9.92442 41.1458 9.64709 41.5792 9.74242 42.0191C9.83776 42.458 10.27 42.7367 10.7066 42.6409C11.1432 42.5451 11.4216 42.1117 11.3252 41.6718C11.2797 41.4616 11.1529 41.2776 10.972 41.16C10.7911 41.0435 10.5712 41.0043 10.3621 41.0511ZM17.9183 38.9115C18.3842 38.8102 18.7417 38.4367 18.8273 37.9652C18.9118 37.4948 18.7059 37.0179 18.3051 36.7598C17.9043 36.5006 17.3886 36.5094 16.9975 36.7827C16.6064 37.056 16.4168 37.5394 16.5187 38.0066C16.6563 38.6447 17.2835 39.0497 17.9183 38.9115ZM12.5829 43.6024C12.2038 43.8419 12.09 44.3428 12.3262 44.7239C12.5634 45.105 13.0618 45.2205 13.442 44.9842C13.8212 44.7468 13.9371 44.2459 13.702 43.8637C13.5883 43.6797 13.4063 43.5479 13.1961 43.5C12.987 43.451 12.766 43.488 12.5829 43.6024ZM20.7274 39.4461C20.9647 39.8272 21.4641 39.9426 21.8433 39.7042C22.2224 39.4646 22.3373 38.9637 22.1 38.5826C21.8628 38.2015 21.3633 38.085 20.9842 38.3234C20.8011 38.4378 20.6722 38.6207 20.6234 38.8309C20.5758 39.041 20.6126 39.2632 20.7274 39.4461ZM20.6202 41.7654C20.241 42.0039 20.1251 42.5059 20.3623 42.887C20.6007 43.2681 21.099 43.3846 21.4782 43.1461C21.8573 42.9077 21.9733 42.4057 21.736 42.0246C21.6223 41.8417 21.4413 41.711 21.2312 41.662C21.0221 41.6141 20.8022 41.6511 20.6202 41.7654ZM9.90601 38.3975C9.56692 37.8531 8.85409 37.6897 8.31351 38.0294C7.77184 38.3703 7.60826 39.0857 7.94626 39.6301C8.28534 40.1746 8.99709 40.339 9.53876 40.0003C9.79876 39.8359 9.98401 39.5757 10.0533 39.2751C10.1216 38.9746 10.0685 38.6588 9.90601 38.3975Z" fill="white"/>
<defs>
<linearGradient id="paint0_linear_222_321" x1="57.0951" y1="40.1277" x2="61.698" y2="40.1277" gradientUnits="userSpaceOnUse">
<stop stop-color="#59C4C9"/>
<stop offset="0.37" stop-color="#41B1BE"/>
<stop offset="1" stop-color="#0F8BA8"/>
</linearGradient>
<linearGradient id="paint1_linear_222_321" x1="4.77313" y1="39.7304" x2="25.4263" y2="39.7304" gradientUnits="userSpaceOnUse">
<stop stop-color="#59C4C9"/>
<stop offset="0.37" stop-color="#41B1BE"/>
<stop offset="1" stop-color="#0F8BA8"/>
</linearGradient>
</defs>
</svg>
